<?xml version="1.0" encoding="utf-8"?>
<!-- Generator: Adobe Illustrator 21.0.0, SVG Export Plug-In . SVG Version: 6.00 Build 0)  -->
<svg version="1.1" id="Layer_1" xmlns="http://www.w3.org/2000/svg" xmlns:xlink="http://www.w3.org/1999/xlink" x="0px" y="0px"
	 viewBox="0 0 202 88" style="enable-background:new 0 0 202 88;" xml:space="preserve">
<style type="text/css">
	.st0{clip-path:url(#SVGID_2_);}
	.st1{clip-path:url(#SVGID_4_);fill:#A5956B;}
	.st2{clip-path:url(#SVGID_6_);}
	.st3{clip-path:url(#SVGID_8_);fill:#A5956B;}
	.st4{fill:#A5956B;}
</style>
<g>
	<g>
		<g>
			<defs>
				<path id="SVGID_1_" d="M97.8,47l-4.4,1.3l2.8-3.7l-2.5-3.9l4.3,1.6l2.9-3.7l-0.2,4.7l4.3,1.6l-4.4,1.3l-0.2,4.7L97.8,47z
					 M105.8,38.8l-4.6-0.6l4.1-2.2l-0.8-4.6l3.3,3.2l4.1-2.2l-2,4.2l3.3,3.2l-4.6-0.6l-2.1,4.2L105.8,38.8z M96.7,35.5l-3.5,3l1-4.5
					l-3.9-2.4l4.6-0.4l1.1-4.5l1.8,4.3l4.6-0.4l-3.5,3.1l1.8,4.3L96.7,35.5z"/>
			</defs>
			<clipPath id="SVGID_2_">
				<use xlink:href="#SVGID_1_"  style="overflow:visible;"/>
			</clipPath>
			<g class="st0">
				<defs>
					<rect id="SVGID_3_" x="86.7" y="24" width="30" height="29"/>
				</defs>
				<clipPath id="SVGID_4_">
					<use xlink:href="#SVGID_3_"  style="overflow:visible;"/>
				</clipPath>
				<rect x="85.3" y="21.6" class="st1" width="32.9" height="34.2"/>
			</g>
		</g>
		<g>
			<defs>
				<path id="SVGID_5_" d="M101,53c-7.9,0-14.3-6.5-14.3-14.5S93.1,24,101,24c7.9,0,14.3,6.5,14.3,14.5S108.9,53,101,53z M101,51.8
					c7.3,0,13.2-6,13.2-13.3s-5.9-13.3-13.2-13.3c-7.3,0-13.2,6-13.2,13.3S93.7,51.8,101,51.8z"/>
			</defs>
			<clipPath id="SVGID_6_">
				<use xlink:href="#SVGID_5_"  style="overflow:visible;"/>
			</clipPath>
			<g class="st2">
				<defs>
					<rect id="SVGID_7_" x="86.7" y="24" width="30" height="29"/>
				</defs>
				<clipPath id="SVGID_8_">
					<use xlink:href="#SVGID_7_"  style="overflow:visible;"/>
				</clipPath>
				<rect x="81.7" y="19" class="st3" width="38.6" height="39"/>
			</g>
		</g>
	</g>
	<g>
		<path class="st4" d="M77.8,1.5c0.3,0,0.5,0.2,0.5,0.5v11.4c0,0.3-0.2,0.5-0.5,0.5h-0.9c-0.3,0-0.5-0.2-0.5-0.5V8
			c0-0.1-0.1-0.2-0.2-0.2c-0.1,0-0.2,0-0.2,0.1l-2.1,5.7c-0.1,0.2-0.3,0.3-0.5,0.3h-1.3c-0.2,0-0.4-0.1-0.5-0.3l-2.1-5.7
			c0-0.1-0.1-0.2-0.2-0.1c-0.1,0-0.2,0.1-0.2,0.2v5.5c0,0.3-0.2,0.5-0.5,0.5h-0.9c-0.3,0-0.5-0.2-0.5-0.5V2c0-0.3,0.2-0.5,0.5-0.5
			s0.7,0,1.2,0c0.2,0,0.4,0.1,0.5,0.3l3.2,8.8c0,0.1,0.1,0.1,0.2,0.1s0.2-0.1,0.2-0.1l3.2-8.8c0.1-0.2,0.3-0.3,0.5-0.3
			C77.1,1.5,77.5,1.5,77.8,1.5z"/>
		<path class="st4" d="M88.2,13.6c-0.1-0.3-0.2-0.7-0.4-1.5c-0.1-0.2-0.3-0.4-0.5-0.4h-2.7c-0.2,0-0.4,0.2-0.5,0.4
			c-0.2,0.6-0.3,1.1-0.4,1.5c-0.1,0.2-0.3,0.4-0.5,0.4h-1c-0.3,0-0.6-0.3-0.5-0.6c0.7-2.5,2.6-9.6,3.1-11.5c0.1-0.2,0.3-0.4,0.5-0.4
			h1.2c0.2,0,0.4,0.2,0.5,0.4c3.2,12,2.4,9.1,3.1,11.5c0.1,0.3-0.2,0.6-0.5,0.6h-1C88.5,14,88.3,13.8,88.2,13.6z M85.4,9.9h1.2
			c0.3,0,0.6-0.3,0.5-0.6c-0.2-0.6-0.4-1.4-0.6-2.2c-0.1-0.5-0.8-0.5-1,0c-0.2,0.7-0.4,1.5-0.6,2.2C84.8,9.5,85,9.9,85.4,9.9z"/>
		<path class="st4" d="M101.5,7.8c0,3.4-2.3,6.2-6,6.2h-1.4c-0.3,0-0.5-0.2-0.5-0.5V2c0-0.3,0.2-0.5,0.5-0.5h1.4
			C99.3,1.5,101.5,4.3,101.5,7.8z M96.1,12c2.2-0.3,3.3-2.1,3.3-4.3c0-2.2-1.2-4-3.3-4.3c-0.3,0-0.6,0.2-0.6,0.5v7.6
			C95.6,11.9,95.8,12.1,96.1,12z"/>
		<path class="st4" d="M110.6,3.5h-3.2c-0.3,0-0.5,0.2-0.5,0.5v1c0,0.3,0.2,0.5,0.5,0.5h2.1c0.3,0,0.5,0.2,0.5,0.5v0.9
			c0,0.3-0.2,0.5-0.5,0.5h-2.1c-0.3,0-0.5,0.2-0.5,0.5v3.7c0,0.3,0.2,0.5,0.5,0.5h3.2c0.3,0,0.5,0.2,0.5,0.5v0.9
			c0,0.3-0.2,0.5-0.5,0.5h-5.1c-0.3,0-0.5-0.2-0.5-0.5V2c0-0.3,0.2-0.5,0.5-0.5h5.1c0.3,0,0.5,0.2,0.5,0.5V3
			C111.1,3.2,110.9,3.5,110.6,3.5z"/>
		<path class="st4" d="M123.4,2v11.5c0,0.3-0.2,0.5-0.5,0.5H122c-0.3,0-0.5-0.2-0.5-0.5c0-0.3,0-11.3,0-11.5c0-0.3,0.2-0.5,0.5-0.5
			h0.9C123.2,1.5,123.4,1.8,123.4,2z"/>
		<path class="st4" d="M134.3,1.5c0.3,0,0.5,0.2,0.5,0.5v11.5c0,0.1-0.1,0.3-0.1,0.3c-0.1,0.1-0.2,0.2-0.4,0.2c-0.7,0-1.1,0-1.3,0
			c-0.2,0-0.4-0.1-0.4-0.3l-3.4-7.3c0-0.1-0.1-0.1-0.2-0.1c-0.1,0-0.2,0.1-0.2,0.2v7c0,0.3-0.2,0.5-0.5,0.5h-0.9
			c-0.3,0-0.5-0.2-0.5-0.5V2c0-0.3,0.2-0.5,0.5-0.5c0.4,0,0.9,0,1.3,0c0.2,0,0.4,0.1,0.4,0.3l3.4,7.3c0,0.1,0.1,0.1,0.2,0.1
			c0.1,0,0.1-0.1,0.1-0.2V2c0-0.3,0.2-0.5,0.5-0.5H134.3z"/>
	</g>
	<g>
		<path class="st4" d="M8.3,64.9c4.3-3.7,13.1-5.9,13.1,1c0,3.5-2.7,6.7-4.1,7.4c-3.4,1.9-4.1-2.5-4.1-2.5s1,1.4,3.2-0.7
			s3-4.1,3-5.2c-0.1-1.1-2.5-2-7.7,2.9c-5.3,4.9-5.7,13.9-1.9,14.3c3.8,0.4,6.9-4.1,6.9-4.1s0.9,0.2,1,1.3c0.2,1-3.1,6-10.4,4.4
			C1,82.4,1.4,70.9,8.3,64.9z"/>
		<path class="st4" d="M29.1,74.7c0.6,0.2,1.6,0.1,1.9-0.1c0,0,0.4,0.5,0.2,0.9c-0.2,0.5-0.7,1-2.4,0.9c-0.5,1.9-1.4,4.1-3.4,4.6
			c-3.6,0.9-6.1-2.1-5.3-5.6c0.8-3.5,3.8-5.6,6.3-5.3C27.1,70.2,29.8,70.6,29.1,74.7z M27.2,73.5C27.2,73.5,27.2,73.5,27.2,73.5
			c-0.1-1.5-1-1.7-1.7-1.4c-1.9,0.8-3.4,6.3-0.7,6.4c1.2,0,1.8-1.2,2-2.4C26,75.7,25.9,74.1,27.2,73.5z"/>
		<path class="st4" d="M39.6,74.7c0.6,0.2,1.6,0.1,1.9-0.1c0,0,0.4,0.5,0.2,0.9c-0.2,0.5-0.7,1-2.4,0.9c-0.5,1.9-1.4,4.1-3.4,4.6
			c-3.6,0.9-6.1-2.1-5.3-5.6c0.8-3.5,3.8-5.6,6.3-5.3C37.7,70.2,40.4,70.6,39.6,74.7z M37.8,73.5C37.8,73.5,37.8,73.5,37.8,73.5
			c-0.1-1.5-1-1.7-1.7-1.4c-1.9,0.8-3.4,6.3-0.7,6.4c1.2,0,1.8-1.2,2-2.4C36.5,75.7,36.5,74.1,37.8,73.5z"/>
		<path class="st4" d="M54.9,82.7c0,0-1.5,4-4.5,3c-3.1-1-4.2-7.1-4.5-9.6c-0.2,0.3-0.2,0.5-0.2,0.5c-0.9,1.8-1.5,3.4-1.7,4v0
			l-0.1,0.2c-1.2,0.2-3.7,0-2.6-5.7c1.2-6.4,4-12.1,5-12.2c1.3-0.2,3,0.8,3,0.8s0,0.1-0.1,0.2c-0.6,0.7-1.9,2.9-3.6,7.5
			c-0.5,1.5-0.9,2.8-1.2,3.9c0.4-0.6,0.7-1.2,1-1.6c1.7-2.6,2.9-3.6,4.6-3.4c0.7,0.1,1.5,0.6,1.7,2c-0.6-0.1-1.3-0.1-2.1,0.3
			c-1,0.4-1.9,1.3-2.6,2.1c0.5,1.2,1.9,4.5,3.7,6.8C52.8,84,54.9,82.7,54.9,82.7z"/>
		<path class="st4" d="M62.3,74.8c0,0-1.6,5.1-5,6c-4,1.1-6.6-1.8-5.8-5.4c0.8-3.5,3.9-5.9,6.3-5.3c2.8,0.7,1.8,5.7-1,5.7
			c-1.5,0-1.7-1.3-1.7-1.3c-0.6,1.8-0.5,3.8,1.2,3.9c2.7,0.1,5-4,5-4S61.8,74.6,62.3,74.8z M55.4,73.8c0.3,0.1,0.7,0.1,1.1,0
			c0.9-0.3,1.1-0.7,1.2-1.1c0.1-0.5,0-0.9-0.8-0.6C56.4,72.3,55.8,73,55.4,73.8z"/>
		<path class="st4" d="M68.9,77.5c-1.6,2.3-4.1,3.5-5.2,3.4h0c-1,0.1-2.1-0.4-2.6-1.2c-0.4-0.5-0.5-1.3-0.5-2c0-0.4,0-0.7,0.1-1.1
			c0.1-0.7,0.3-1.8,0.7-3.1c0.9-2.6,1.5-3.5,2.8-3.4c0.1,0,0.2,0.1,0.3,0.1c0.5,0.1,1,0.3,1.4,0.5c-1.2,2.7-2.9,7.7-1.7,7.9
			c0.5,0.1,1.1-0.4,1.7-1.2c0.1-0.1,2.3-3,2.6-6.1c0.3-3-0.6-3.5-0.7-3.5c0.1,0,2.2-0.4,3.1,0.5C72.5,69.9,70.6,75.2,68.9,77.5z"/>
		<path class="st4" d="M79.4,75.8c-0.1,0.3-1.1,3.4-3.3,4.7c-1.3,0.8-3.1,0.4-3.9-0.8c-0.3-0.5-0.5-1.3-0.5-2c0-0.4,0-0.7,0-1.1
			c0.1-0.7,0.3-1.8,0.7-3.1c0.9-2.6,1.5-3.5,2.8-3.4c0.1,0,0.2,0.1,0.3,0.1c0.5,0.1,1,0.3,1.3,0.5c-1.2,2.7-2.8,7.7-1.7,7.9
			c1.4,0.3,3.4-4.1,3.4-4.1S79.8,74.7,79.4,75.8z M80.1,65.1c0,0-0.8,0.6-1.5,1.8c-0.7,1.2-1,2.1-1,2.1s-0.6,0.1-1.3-0.4
			c-0.9-0.7-0.3-2.6,0.8-3.9C78.2,63.4,80.1,65.1,80.1,65.1z"/>
		<path class="st4" d="M78.8,74c1.3-6,3.8-11.1,4.8-11.3c1.3-0.2,3,0.8,3,0.8s0,0.1-0.1,0.2c-0.6,0.7-1.9,2.9-3.6,7.5
			c-0.4,1.1-0.7,2-0.9,2.9c-0.7,2.6-0.7,4.4-0.1,4.4c1,0.1,3.7-4.5,5.2-7.3c0-0.2,0.1-0.3,0.1-0.4c0.8-2.7,1.8-5,2.7-6.5
			c0,0,0.9-2.1,2.6-2.1c1.2,0,3.3,1.2,2.9,1.9c-0.4,0.6-3.3,3.6-3.5,3.8c-0.4,0.9-0.9,2.1-1.3,3.4c-0.4,1-0.7,2-0.9,2.9
			c-0.7,2.6-0.7,4.4-0.1,4.4c1.4,0.1,3.4-4.1,3.4-4.1s1.1,0.2,0.6,1.2c0,0.1-0.1,0.4-0.3,0.7c-0.6,1.3-1.2,2.4-2,3.2
			c-0.3,0.3-0.6,0.6-1,0.8c-0.5,0.3-1.1,0.4-1.6,0.4c-2.5-0.3-2.8-3.1-2.6-5.4c-0.5,1.4-2.6,5.4-5.1,5.3C78,80.5,78.3,76.4,78.8,74z
			"/>
		<path class="st4" d="M103.5,74.8c0,0-1.6,5.1-5,6c-4,1.1-6.6-1.8-5.8-5.4c0.8-3.5,3.9-5.9,6.3-5.3c2.8,0.7,1.8,5.7-1,5.7
			c-1.5,0-1.7-1.3-1.7-1.3c-0.6,1.8-0.5,3.8,1.2,3.9c2.7,0.1,5-4,5-4S103.1,74.6,103.5,74.8z M96.7,73.8c0.3,0.1,0.7,0.1,1.1,0
			c0.9-0.3,1.1-0.7,1.2-1.1c0.1-0.5,0-0.9-0.8-0.6C97.6,72.3,97.1,73,96.7,73.8z"/>
		<path class="st4" d="M107.7,78.7c0.2,0.2,0.2,0.7,0,1.2c-0.1,0.5-0.4,1.1-0.7,1.7c-0.6,1-1.7,1.9-2.2,1.8s-0.6-0.6-0.6-0.6
			c0.3-0.1,0.6-0.4,0.8-0.6c0.3-0.4,0.4-0.8,0.5-1.1c-0.5,0-0.9-0.1-1-0.2c-0.5-0.2,0.5-2.6,0.5-2.6C105,78.3,107.1,78.2,107.7,78.7
			z"/>
		<path class="st4" d="M123.2,63.7c-0.8,1.8-1.9,4.7-2.6,6.7c-0.6,2-1.1,3.9-1.3,5.5c0,0-0.1,0.4-0.1,1c-0.2,1.8-0.1,3.3,0.1,4.3
			c0.2,0.8,0.5,1.5,1,2c-1,0.7-2.6,0.8-3.9-0.1c-1.9-1.3-0.7-6.8-0.7-6.8c0.1-0.7,0.2-1.4,0.4-2.1c0.4-1.6,0.9-3.2,1.5-4.7
			c0.4-1.1,1.4-3.7,2-5.1l-0.7,0.2l-0.3,0.1l-0.1,0.1c-0.7,0.2-1.3,0.5-1.9,0.9l0,0h0l-0.9,0.5c-3.3,2.1-3.5,3.2-3.5,3.2
			c-0.7,1.6,3.2,1.1,3.2,1.1c-1.4,1.5-5.7,2.1-5.8-2.4c-0.2-4.5,7.1-6.2,7.1-6.2c1.8-0.5,3.9-0.8,6-0.9h2.6c4.6,0.2,5.5,1,5.7,1.3
			c0,0,0,0.1,0.1,0.1c0.3,0.9-0.2,1.6-0.2,1.6s-0.3-0.2-1.1-0.3C128.1,63.5,125.7,63.4,123.2,63.7z"/>
		<path class="st4" d="M133.8,74.8c0,0-1.6,5.1-5,6c-4,1.1-6.6-1.8-5.8-5.4c0.8-3.5,3.9-5.9,6.3-5.3c2.8,0.7,1.8,5.7-1,5.7
			c-1.5,0-1.7-1.3-1.7-1.3c-0.6,1.8-0.5,3.8,1.2,3.9c2.7,0.1,5-4,5-4S133.4,74.6,133.8,74.8z M127,73.8c0.3,0.1,0.7,0.1,1.1,0
			c0.9-0.3,1.1-0.7,1.2-1.1c0.1-0.5,0-0.9-0.8-0.6C127.9,72.3,127.4,73,127,73.8z"/>
		<path class="st4" d="M149,70.9c0,0-0.7,1.5-1.3,3.5c-0.2,0.5-0.3,1-0.4,1.6c1.2-2.2,3.6-5.7,5.4-5.7c1-0.1,2.3,0.6,2.3,0.6
			s-0.6,1.5-1.2,3.5c-0.2,0.8-0.5,1.6-0.6,2.3c-0.4,1.6-0.5,3.2-0.2,4.2c-2.7,0.7-3.5-0.9-3.4-3c0.1-1.5,0.6-3.1,1.1-4.5
			c-0.7,0.9-1.4,2-2.2,3.6c-1,2-1.4,3.3-1.6,3.8l0.1,0.1H147v0c0,0.1,0,0.1,0,0c-2.1,0.5-2.9-0.6-3.1-2.2c-0.4,0.8-1,1.5-1.6,1.9
			c-1.3,0.8-2.8,0.2-3.6-0.7c-0.9-1.1-0.9-3,0-5.8c-1,1.2-3.5,6.3-3.4,6.7v0h0v0l0,0c-4.1,1-3.2-4.1-2.4-6.9
			c0.2-0.7,0.4-1.3,0.6-1.8c0.2-0.5,0.4-1,0.7-1.4c0.7-1.2,3.2,0.1,3.2,0.1s-0.7,1.5-1.2,3.4c-0.2,0.5-0.4,1.1-0.5,1.6
			c1.1-1.9,2.9-4.9,4.6-5.5c0.8-0.5,2.3,0,3,0.4c-1.2,2.7-2.8,7.7-1.7,7.9c1.6,0.3,4.3-7.8,4.3-7.9C146.5,69.5,149,70.9,149,70.9z"
			/>
		<path class="st4" d="M165.8,74.8c0,0-1.6,5.1-5,6c-4,1.1-6.6-1.8-5.8-5.4c0.8-3.5,3.9-5.9,6.3-5.3c2.8,0.7,1.8,5.7-1,5.7
			c-1.5,0-1.7-1.3-1.7-1.3c-0.6,1.8-0.5,3.8,1.2,3.9c2.7,0.1,5-4,5-4S165.3,74.6,165.8,74.8z M158.9,73.8c0.3,0.1,0.7,0.1,1.1,0
			c0.9-0.3,1.1-0.7,1.2-1.1c0.1-0.5,0-0.9-0.8-0.6C159.9,72.3,159.3,73,158.9,73.8z"/>
		<path class="st4" d="M173.5,81c-3.3-0.5-3.1-4.3-0.8-4c0,0-1,1.2-0.3,1.5c0.4,0.2,1.8,0.9,1.7-2.7c0-1.1-0.1-2.1-0.1-3
			c-1,2.2-2.6,3.4-3.7,4.1c0.2,2-1.8,4.3-3.3,4.1c-1-0.1-2.2-1-2.3-1.9c-0.2-1.3,1.3-1.6,2.1-1.9v-0.1c0-1.1-0.3-2-0.4-2.9
			c-0.7,0.8-1.1,1.5-1.1,1.5l-0.1,0.1c-0.1-0.1-0.3,0-0.5-0.2c-0.4-0.3-0.1-0.9,0.1-1.2l0,0c0.5-1,1.6-3.2,2.9-3.8
			c1.8-1,2.8-0.6,3.4,0.2c0.6,0.7-0.3,1.8-0.8,1.6c0-0.9-1.2-1.2-1.5-0.8s0.6,2.3,1.2,3.9c2.1-1.5,3.8-6.7,6-7.5
			c0,0,1.2-0.4,1.6,0.5c0.3,0.8,0.1,1.6-0.9,1.4c-0.3,0.7,0.9,3.1,1.1,5.1C178.2,79.8,175.8,81.3,173.5,81z M166.8,78.5
			c-0.1,0.1-0.4,0.1-0.5,0.1c-0.3,0.1-0.4,0.6,0,0.6C166.6,79.3,166.8,78.6,166.8,78.5z M166.8,78.5
			C166.8,78.5,166.8,78.5,166.8,78.5C166.8,78.4,166.8,78.5,166.8,78.5z"/>
		<path class="st4" d="M189.7,74.8c0,0-1.6,5.1-5,6c-4,1.1-6.6-1.8-5.8-5.4c0.8-3.5,3.9-5.9,6.3-5.3c2.8,0.7,1.8,5.7-1,5.7
			c-1.5,0-1.7-1.3-1.7-1.3c-0.6,1.8-0.5,3.8,1.2,3.9c2.7,0.1,5-4,5-4S189.3,74.6,189.7,74.8z M182.9,73.8c0.3,0.1,0.7,0.1,1.1,0
			c0.9-0.3,1.1-0.7,1.2-1.1c0.1-0.5,0-0.9-0.8-0.6C183.8,72.3,183.3,73,182.9,73.8z"/>
		<path class="st4" d="M199.1,74.8c0,0-1.6,5.1-5,6c-4,1.1-6.6-1.8-5.8-5.4c0.8-3.5,3.9-5.9,6.3-5.3c2.8,0.7,1.8,5.7-1,5.7
			c-1.5,0-1.7-1.3-1.7-1.3c-0.6,1.8-0.5,3.8,1.2,3.9c2.7,0.1,5-4,5-4S198.7,74.6,199.1,74.8z M192.3,73.8c0.3,0.1,0.7,0.1,1.1,0
			c0.9-0.3,1.1-0.7,1.2-1.1c0.1-0.5,0-0.9-0.8-0.6C193.2,72.3,192.7,73,192.3,73.8z"/>
	</g>
</g>
</svg>
