<svg width="20px" height="22px" viewBox="0 0 20 22" version="1.1" xmlns="http://www.w3.org/2000/svg"
  xmlns:xlink="http://www.w3.org/1999/xlink" aria-hidden="true">
  <g id="Page-2" stroke="none" stroke-width="1" fill="var(--text-color)" fill-rule="evenodd">
    fill-rule="nonzero">
    <rect id="Rectangle" x="0" y="7.5" width="5" height="14" rx="0.5"></rect>
    <ellipse id="Oval" cx="2.48" cy="3" rx="2.48" ry="2.5"></ellipse>
    <path
      d="M16.5,21.5 L19.5,21.5 C19.7761424,21.5 20,21.2761424 20,21 L20,12.6 C20,8.83 17.87,7 14.89,7 C13.7013739,6.95652783 12.5498222,7.41787501 11.72,8.27 C11.6077491,8.39968703 11.4266348,8.44579534 11.266036,8.38557076 C11.1054371,8.32534619 10.9992989,8.17151823 11,8 C11,7.72385763 10.7761424,7.5 10.5,7.5 L7.5,7.5 C7.22385763,7.5 7,7.72385763 7,8 L7,21 C7,21.2761424 7.22385763,21.5 7.5,21.5 L10.5,21.5 C10.7761424,21.5 11,21.2761424 11,21 L11,13.5 C11,12.1192881 12.1192881,11 13.5,11 C14.8807119,11 16,12.1192881 16,13.5 L16,21 C16,21.2761424 16.2238576,21.5 16.5,21.5 Z"
      id="Path"></path>
  </g>
</svg>