<svg width="24px" height="24px" viewBox="0 0 24 24" version="1.1" xmlns="http://www.w3.org/2000/svg"
  xmlns:xlink="http://www.w3.org/1999/xlink" aria-hidden="true">
  <g id="Page-2" stroke="none" stroke-width="1" fill="var(--text-color)" fill-rule="evenodd">
    <path
      d="M12,0.279999463 C6.09825247,0.27824661 1.07133693,4.56813441 0.145132155,10.396751 C-0.781072622,16.2253677 2.66842121,21.8622116 8.28,23.69 L8.57,23.69 C8.85620431,23.7077555 9.13625951,23.6017917 9.33902559,23.3990256 C9.54179167,23.1962595 9.6477555,22.9162043 9.63,22.63 L9.63,22.42 C9.63,22.25 9.63,22.02 9.63,21.33 C9.61017523,21.1976699 9.53813728,21.0788073 9.43,21 C9.31234651,20.9048261 9.15791925,20.8680577 9.01,20.9 C6.33,21.48 5.76,19.8 5.72,19.69 C5.38440987,18.8011171 4.78403177,18.0366822 4,17.5 C3.95302518,17.4593771 3.90286395,17.4225922 3.85,17.39 C3.96620778,17.32744 4.09912808,17.3029547 4.23,17.32 C4.74124644,17.3910884 5.1777504,17.7251089 5.38,18.2 C6.18402061,19.5999541 7.95174073,20.112593 9.38,19.36 C9.52966698,19.2945732 9.63793982,19.1601656 9.67,19 C9.70828836,18.537441 9.90626493,18.1025996 10.23,17.77 C10.3767925,17.6396404 10.433714,17.4354391 10.3755248,17.2479406 C10.3173356,17.0604421 10.1548048,16.9243466 9.96,16.9 C7.59,16.63 5.17,15.8 5.17,11.71 C5.15002242,10.6828805 5.52599451,9.68744964 6.22,8.93 C6.35050071,8.78586093 6.38560459,8.57913809 6.31,8.4 C6.03207963,7.62353034 6.03561881,6.77412674 6.32,6 C7.24382752,6.16376095 8.11093135,6.55946309 8.84,7.15 C8.96201661,7.23612022 9.116648,7.26189212 9.26,7.22 C10.1532851,6.97768205 11.0744378,6.85329282 12,6.85 C12.9290224,6.8507808 13.8538084,6.97520656 14.75,7.22 C14.8902808,7.25870625 15.0405082,7.23305766 15.16,7.15 C15.8902169,6.56131979 16.7568225,6.16584501 17.68,6 C17.952229,6.76997978 17.952229,7.61002022 17.68,8.38 C17.6043954,8.55913809 17.6394993,8.76586093 17.77,8.91 C18.4568298,9.65987691 18.8322771,10.6431914 18.82,11.66 C18.82,15.75 16.39,16.57 14.01,16.84 C13.8104427,16.8607819 13.6426344,16.9988381 13.5837832,17.1906494 C13.524932,17.3824606 13.586437,17.5908744 13.74,17.72 C14.1882992,18.1827041 14.4112496,18.818661 14.35,19.46 L14.35,22.64 C14.3399777,22.9565551 14.4720296,23.2610081 14.71,23.47 C15.0134819,23.6972215 15.406491,23.7676666 15.77,23.66 C21.3424055,21.7957817 24.7452444,16.1706673 23.8098335,10.3696312 C22.8744227,4.56859513 17.875941,0.298184653 12,0.279999463 Z"
      id="Path"></path>
  </g>
</svg>